<?xml version="1.0" encoding="UTF-8"?>
<svg id="Layer_1" xmlns="http://www.w3.org/2000/svg" version="1.1" viewBox="0 0 506 506">
  <!-- Generator: Adobe Illustrator 29.6.1, SVG Export Plug-In . SVG Version: 2.1.1 Build 9)  -->
  <defs>
    <style>
      .st0 {
        fill: #999591;
      }

      .st1 {
        fill: #282124;
      }

      .st2 {
        fill: #ff859b;
      }

      .st3 {
        fill: none;
        stroke: #231f20;
        stroke-miterlimit: 10;
      }
    </style>
  </defs>
  <circle class="st2" cx="253" cy="253" r="253"/>
  <rect class="st1" x="102.8" y="248.4" width="308.3" height="162.7"/>
  <path class="st0" d="M257,277c-28,0-50.9,22.8-50.9,50.9s22.8,50.9,50.9,50.9,50.9-22.8,50.9-50.9-22.9-50.9-50.9-50.9Z"/>
  <g>
    <polygon class="st1" points="240.4 296.5 240.4 360.7 287.8 328.6 240.4 296.5"/>
    <polygon class="st1" points="97.3 141 95.1 142.5 103.1 196.5 168 186.7 98.5 141.7 97.3 141"/>
    <polygon class="st1" points="141.4 134 210.8 180.2 265.2 172 195.2 125.9 141.4 134"/>
    <polygon class="st1" points="238.3 119.3 308.1 165.5 362.5 157.2 291.9 111.2 238.3 119.3"/>
    <polygon class="st1" points="399.8 94.9 336.3 104.5 404.2 150 405.7 150.6 407.8 148.9 399.8 94.9"/>
  </g>
  <g>
    <polygon class="st0" points="189.5 126.7 259.5 172.8 313.8 164.6 244 118.5 189.5 126.7"/>
    <polygon class="st0" points="94.9 141.1 95.4 144.3 162.2 187.6 216.5 179.3 147.1 133.1 94.9 141.1"/>
    <polygon class="st0" points="405.5 146.2 405.5 146.2 342 103.6 286.1 112.1 356.7 158.1 405.9 150.7 407.3 150.4 407.9 147.7 405.5 146.2"/>
  </g>
  <polygon class="st3" points="164.4 194.3 164.4 194.3 165 193.7 164.4 194.3"/>
  <g>
    <polygon class="st1" points="411 193.7 408.6 192.7 345.5 248.4 411.1 248.4 411.1 195.1 411 193.7"/>
    <path class="st1" d="M102.8,192.3v53.4c0,.9.5,1.7,1.4,2.1l1.5.5,63.9-55.9h-66.8v-.1Z"/>
    <polygon class="st1" points="311 192.3 247.1 248.4 302.2 248.4 365.4 192.3 311 192.3"/>
    <polygon class="st1" points="213 192.3 148.7 248.4 203.8 248.4 267.8 192.3 213 192.3"/>
  </g>
  <g>
    <polygon class="st0" points="163.6 192.3 103.6 244.9 102.8 245.6 102.8 248.4 153.7 248.4 219 192.3 163.6 192.3"/>
    <polygon class="st0" points="359.5 192.3 296.3 248.4 351.4 248.4 411.1 195.6 411.1 192.3 359.5 192.3"/>
    <polygon class="st0" points="261.9 192.3 197.9 248.4 253 248.4 316.9 192.3 261.9 192.3"/>
  </g>
</svg>